<svg width="148" height="145" viewBox="0 0 148 145" fill="none" xmlns="http://www.w3.org/2000/svg">
<path d="M18.5 0L16.65 3.69605L36.075 14.7842C36.075 24.0243 32.375 31.4164 24.05 36.0365L4.625 24.9483L3.7 26.7963C8.325 40.6565 17.575 49.8966 36.075 49.8966C40.7 49.8966 54.575 63.7568 61.975 71.1489L76.775 56.3647C69.375 48.9726 52.725 32.3404 52.725 27.7204C52.725 11.0881 48.1 0 18.5 0ZM134.125 4.62006L115.625 17.5562L113.775 24.9483L60.125 78.541L52.725 73.9209L49.025 77.617C49.025 88.7051 36.075 94.2492 30.525 94.2492L0 124.742C0 133.982 10.175 144.146 19.425 144.146L49.95 113.653C49.95 108.109 55.5 95.1732 66.6 95.1732L70.3 91.4772L65.675 84.0851L119.325 30.4924L126.725 28.6444L139.675 10.1641L134.125 4.62006ZM87.875 67.4529L73.075 82.237C84.175 93.3252 98.975 108.109 98.975 112.729C98.975 129.362 103.6 140.45 133.2 140.45L135.05 136.754L115.625 125.666C115.625 116.425 119.325 109.033 127.65 104.413L147.075 115.501L148 113.653C143.375 99.7933 134.125 90.5531 115.625 90.5531C111 90.5531 98.975 78.541 87.875 67.4529Z" fill="#F7F8F5"/>
</svg>
