<svg width="156" height="153" viewBox="0 0 156 153" fill="none" xmlns="http://www.w3.org/2000/svg">
<g clip-path="url(#clip0)" filter="url(#filter0_d)">
<path d="M22.5 3L20.65 6.69605L40.075 17.7842C40.075 27.0243 36.375 34.4164 28.05 39.0365L8.625 27.9483L7.7 29.7963C12.325 43.6565 21.575 52.8966 40.075 52.8966C44.7 52.8966 58.575 66.7568 65.975 74.1489L80.775 59.3647C73.375 51.9726 56.725 35.3404 56.725 30.7204C56.725 14.0881 52.1 3 22.5 3ZM138.125 7.62006L119.625 20.5562L117.775 27.9483L64.125 81.541L56.725 76.9209L53.025 80.617C53.025 91.7051 40.075 97.2492 34.525 97.2492L4 127.742C4 136.982 14.175 147.146 23.425 147.146L53.95 116.653C53.95 111.109 59.5 98.1732 70.6 98.1732L74.3 94.4772L69.675 87.0851L123.325 33.4924L130.725 31.6444L143.675 13.1641L138.125 7.62006ZM91.875 70.4529L77.075 85.237C88.175 96.3252 102.975 111.109 102.975 115.729C102.975 132.362 107.6 143.45 137.2 143.45L139.05 139.754L119.625 128.666C119.625 119.425 123.325 112.033 131.65 107.413L151.075 118.501L152 116.653C147.375 102.793 138.125 93.5531 119.625 93.5531C115 93.5531 102.975 81.541 91.875 70.4529Z" fill="#F7F8F5"/>
</g>
<defs>
<filter id="filter0_d" x="0" y="0" width="156" height="152.146" filterUnits="userSpaceOnUse" color-interpolation-filters="sRGB">
<feFlood flood-opacity="0" result="BackgroundImageFix"/>
<feColorMatrix in="SourceAlpha" type="matrix" values="0 0 0 0 0 0 0 0 0 0 0 0 0 0 0 0 0 0 127 0"/>
<feOffset dy="1"/>
<feGaussianBlur stdDeviation="2"/>
<feColorMatrix type="matrix" values="0 0 0 0 0 0 0 0 0 0 0 0 0 0 0 0 0 0 0.25 0"/>
<feBlend mode="normal" in2="BackgroundImageFix" result="effect1_dropShadow"/>
<feBlend mode="normal" in="SourceGraphic" in2="effect1_dropShadow" result="shape"/>
</filter>
<clipPath id="clip0">
<rect width="148" height="144.146" fill="white" transform="translate(4 3)"/>
</clipPath>
</defs>
</svg>
